<?xml version="1.0" encoding="UTF-8"?> <svg xmlns="http://www.w3.org/2000/svg" width="45" height="45" viewBox="0 0 45 45" fill="none"><path d="M44.9673 21.2898C44.548 21.2614 44.1256 21.2471 43.6996 21.2471C42.6097 21.2471 41.5415 21.341 40.5041 21.5213C39.5519 21.6862 38.6244 21.9239 37.7279 22.2283C37.2092 22.4043 36.701 22.6025 36.2045 22.8211C36.0915 22.8711 35.9791 22.9224 35.8674 22.9743C36.2323 24.234 36.4151 25.5393 36.4151 26.8502C36.4151 30.6928 34.8572 34.1717 32.339 36.6899C30.8243 38.2045 28.962 39.3716 26.8823 40.0614C25.8653 40.3991 24.8082 40.6171 23.7399 40.7109C23.7195 40.2398 23.7152 39.7687 23.7276 39.2975C23.7689 37.647 24.0116 36.0465 24.4303 34.5188C25.3602 31.1313 27.1589 28.1037 29.5727 25.6906C30.9182 24.3444 32.4558 23.1892 34.1403 22.2697C33.9914 21.8992 33.8179 21.5497 33.6537 21.1872C33.5592 20.9779 33.4623 20.7686 33.3696 20.5574C32.2643 18.0306 31.7036 15.3168 31.7036 12.556C31.7036 11.8403 31.7407 11.1339 31.8136 10.438C27.7962 15.0315 23.7782 19.625 19.7596 24.2185L19.7324 24.25C19.6034 24.3889 19.4194 24.476 19.215 24.476C18.8253 24.476 18.5092 24.1598 18.5092 23.7702C18.5092 23.6288 18.5512 23.4966 18.6234 23.3855L18.7549 23.2348C19.6935 22.1623 20.6315 21.0897 21.5701 20.0171C18.7766 16.8241 15.9843 13.6304 13.1908 10.438C13.2643 11.1339 13.3019 11.8403 13.3019 12.556C13.3019 14.0231 13.1438 15.4533 12.8431 16.8315C12.7863 17.0921 12.7246 17.3508 12.6579 17.6077C12.3924 18.6247 12.0496 19.6102 11.6353 20.5574C11.3914 21.1138 11.1092 21.6429 10.8832 22.2073L10.8579 22.2722C12.5406 23.1916 14.0762 24.3457 15.4217 25.6906C17.8398 28.108 19.6404 31.143 20.5679 34.5385C20.9841 36.06 21.2243 37.6538 21.2669 39.2969C21.278 39.7687 21.2743 40.2386 21.2533 40.7103C20.185 40.6159 19.1353 40.3991 18.1171 40.0614C16.0368 39.3716 14.1744 38.2045 12.6603 36.6899C10.1422 34.1717 8.58431 30.6928 8.58431 26.8502C8.58431 25.5399 8.76647 24.2364 9.13079 22.9768C9.02088 22.9255 8.9091 22.8749 8.79796 22.8255C6.0489 21.6096 3.0331 21.0879 0.0333467 21.2892C0.0111172 21.6899 0 22.0943 0 22.5C0 34.9263 10.0737 45 22.5 45C34.9257 45 45 34.9263 45 22.5C45 22.0943 44.9883 21.6905 44.9673 21.2898Z" fill="#7D6064"></path><path d="M30.5685 26.6866C27.3706 29.884 25.3335 34.2435 25.1445 39.0771C27.5367 38.5622 29.675 37.3624 31.3435 35.6939C33.6066 33.4315 35.0064 30.3045 35.0064 26.8503C35.0064 25.7382 34.8613 24.6594 34.5884 23.6325C33.1114 24.4655 31.7597 25.4955 30.5685 26.6866Z" fill="#7D6064"></path><path d="M9.53691 21.6124C9.55544 21.6211 9.57335 21.6297 9.59188 21.6377C9.74378 21.2629 9.91174 20.9109 10.0883 20.5491C11.2443 18.1279 11.8914 15.4171 11.8914 12.5551C11.8914 11.196 11.7457 9.87088 11.469 8.59515C11.4289 8.4099 11.3573 8.21167 11.3776 8.02457C11.4159 7.67075 11.7154 7.39539 12.0791 7.39539C12.2687 7.39539 12.441 7.47069 12.5675 7.59233C12.6231 7.64544 12.6731 7.71402 12.7244 7.7733L13.0115 8.10116L17.1332 12.8138L21.5365 8.10116L21.941 7.66831L21.9836 7.6226L22.0281 7.57509C22.1528 7.46394 22.3177 7.39539 22.498 7.39539C22.6783 7.39539 22.8438 7.46394 22.9685 7.57509L23.0123 7.6226L23.055 7.66771L23.46 8.10116L27.8664 12.8157L31.99 8.10116L32.2771 7.7733L32.3284 7.71523L32.3901 7.63931C32.5136 7.48555 32.71 7.39539 32.923 7.39539C33.2898 7.39539 33.5918 7.67572 33.6257 8.03386C33.6337 8.11413 33.6232 8.20059 33.6053 8.27778C33.2812 9.65107 33.1101 11.0836 33.1101 12.5551C33.1101 15.3628 33.7332 18.0248 34.8483 20.4101C35.0391 20.8183 35.2337 21.2172 35.4035 21.6359C35.4232 21.6266 35.4424 21.6173 35.4627 21.6087C36.3945 21.1863 37.3652 20.8337 38.3674 20.5565C39.0645 20.3638 39.7771 20.2082 40.5027 20.0915C41.5431 19.9242 42.6108 19.8372 43.6982 19.8372C44.0829 19.8372 44.4651 19.8482 44.8448 19.8698C43.5419 8.68282 34.0351 -0.00028801 22.4986 -0.00028801C10.9621 -0.00028801 1.45524 8.68282 0.152344 19.8698C3.37624 19.6871 6.59767 20.2793 9.53691 21.6124Z" fill="#7D6064"></path><path d="M13.659 35.6932C15.3262 37.3604 17.4621 38.5596 19.8524 39.0752C19.6628 34.2415 17.6258 29.8832 14.4284 26.6859C13.2385 25.496 11.8881 24.4673 10.4129 23.6343C10.1406 24.6599 9.99609 25.7381 9.99609 26.8496C9.99609 30.3038 11.3959 33.4307 13.659 35.6932Z" fill="#7D6064"></path><path d="M18.3628 13.5607L18.0664 13.8775C19.5447 15.5676 21.0223 17.2577 22.5006 18.9471L22.5037 18.9502C23.9825 17.2601 25.4608 15.5701 26.9391 13.8794L26.6421 13.5614L22.5006 9.13088L18.3628 13.5607Z" fill="#7D6064"></path></svg> 